# xmcd
#
# Track frame offsets:
#	150
#	37940
#	89057
#	100457
#	122472
#	156201
#	182459
#	197493
#	220866
#	248376
#
# Disc length: 3664 seconds
#
# Revision: 1
# Processed by: cddbd v1.5.2PL0 Copyright (c) Steve Scherf et al.
# Submitted via: audiograbber 1.83.01
#
DISCID=790e4e0a
DTITLE=Grateful Dead - 79-07-01 Seattle Centre Memorial Coliseum, Seattle WA
DYEAR=1900
DGENRE=
TTITLE0=Mississippi Half-Step
TTITLE1=Franklin's Tower
TTITLE2=Mama Tried
TTITLE3=Mexicali Blues
TTITLE4=Peggy-O
TTITLE5=Minglewood Blues
TTITLE6=Stagger Lee
TTITLE7=El Paso
TTITLE8=Brown-Eyed Women
TTITLE9=Passenger
EXTD=
EXTT0=
EXTT1=
EXTT2=
EXTT3=
EXTT4=
EXTT5=
EXTT6=
EXTT7=
EXTT8=
EXTT9=
PLAYORDER=
